<svg width="441" height="323" viewBox="0 0 441 323" fill="none" xmlns="http://www.w3.org/2000/svg">
<path fill-rule="evenodd" clip-rule="evenodd" d="M47.9676 287.533C81.241 323.655 209.911 302.905 294.634 302.905C331.184 302.905 453.841 321.175 403.191 195.703C237.118 -215.699 -57.4598 173.076 47.9676 287.533Z" fill="url(#paint0_linear_29230_2246)"/>
<path fill-rule="evenodd" clip-rule="evenodd" d="M195.189 290.438C195.35 290.314 195.52 290.18 195.591 289.99C195.816 289.378 194.931 288.971 194.277 288.985C193.328 289.007 192.112 289.644 192.402 290.545C192.571 291.066 193.214 291.308 193.755 291.212C194.295 291.116 194.754 290.772 195.189 290.438ZM198.008 279.712C198.725 279.936 199.432 280.212 200.056 280.629C201.227 281.412 202.023 282.625 202.788 283.806C203.336 284.653 203.892 285.516 204.166 286.486C204.462 287.537 204.409 288.658 204.211 289.732C203.593 293.075 201.524 296.126 198.642 297.943C195.761 299.76 192.11 300.316 188.816 299.439C188.175 299.269 187.53 299.036 187.037 298.593C186.622 298.221 186.343 297.726 186.087 297.231C184.746 294.637 183.841 291.755 183.945 288.838C184.047 285.921 185.25 282.969 187.528 281.135C190.385 278.834 194.504 278.615 198.008 279.712Z" fill="white"/>
<path fill-rule="evenodd" clip-rule="evenodd" d="M349.268 121.014C347.698 120.994 346.225 122.308 346.07 123.866C346.006 124.503 346.277 125.295 346.913 125.383C347.389 125.448 347.807 125.081 348.128 124.723C348.805 123.966 349.387 123.124 349.855 122.223C350.011 121.92 350.15 121.533 349.944 121.261C349.793 121.064 349.517 121.017 349.268 121.014ZM348.589 114.025C350.818 114.8 352.84 116.165 354.391 117.942C355.723 119.469 356.737 121.452 356.457 123.457C356.354 124.194 356.083 124.895 355.772 125.571C354.596 128.129 352.573 130.581 349.795 131.078C348.337 131.337 346.834 131.026 345.432 130.55C343.812 130 342.266 129.229 340.853 128.264C340.104 127.753 339.359 127.145 339.031 126.3C338.804 125.718 338.797 125.078 338.806 124.453C338.827 122.909 338.929 121.339 339.469 119.892C340.152 118.061 341.488 116.549 342.905 115.201C343.474 114.658 344.079 114.124 344.811 113.833C346.008 113.357 347.371 113.601 348.589 114.025Z" fill="white"/>
<path fill-rule="evenodd" clip-rule="evenodd" d="M349.271 2.63206C358.498 12.1228 365.78 23.4712 370.548 35.7872C370.875 36.6331 371.193 37.5721 370.88 38.4239C368.475 44.9796 363.834 50.446 359.283 55.7606C356.374 59.1561 353.467 62.5523 350.558 65.9485C347.782 69.19 345.005 72.4323 342.135 75.5932C327.523 91.6844 310.256 105.755 290.258 114.413C289.503 114.74 288.694 115.065 287.881 114.935C287.068 114.804 286.307 114.02 286.52 113.23C288.992 104.047 291.48 94.4465 289.497 85.1478C289.017 82.9047 288.485 80.081 290.35 78.7314C305.453 67.8038 316.327 52.1848 326.748 36.7775C329.369 32.9033 331.982 29.0182 334.301 24.9593C338.418 17.7519 341.588 10.0117 343.707 1.99577C343.998 0.896196 345.396 0.400651 346.503 0.688739C347.61 0.977561 348.475 1.8147 349.271 2.63206Z" fill="white"/>
<path fill-rule="evenodd" clip-rule="evenodd" d="M61.5159 39.5022C63.0161 53.0277 67.1916 66.2534 73.7316 78.197C77.7815 85.5912 82.7067 92.4672 87.6194 99.322C91.0379 104.092 94.6931 109.063 100.027 111.528C101.446 112.183 101.248 114.223 100.867 115.735C99.2214 122.271 98.4541 129.025 98.5908 135.763C98.604 136.399 98.6209 137.059 98.3696 137.644C97.5184 139.632 94.6027 139.3 92.5947 138.487C80.1724 133.458 70.6351 123.344 61.7254 113.352C50.158 100.378 38.7625 86.836 31.9292 70.8687C31.4647 69.783 31.0134 68.6409 31.0913 67.4629C31.1707 66.2629 31.7889 65.1722 32.4158 64.1452C38.6104 53.9976 47.2283 45.3322 57.3529 39.0719C58.0658 38.6314 58.8273 38.1893 59.6652 38.16C60.5038 38.1314 61.4233 38.6702 61.5159 39.5022Z" fill="white"/>
<path fill-rule="evenodd" clip-rule="evenodd" d="M347.461 276.783C348.532 274.974 349.859 272.982 351.936 272.638C352.756 272.504 353.188 271.616 353.467 270.836C356.902 261.226 357.233 250.539 354.399 240.736C353.59 237.938 354.586 234.971 355.572 232.231C358.114 225.156 360.657 218.081 363.2 211.007C361.743 208.494 357.902 208.568 355.934 206.429C353.401 203.677 355.312 199.301 357.295 196.132C368.886 177.621 380.475 159.109 392.065 140.597C393.485 138.329 396.601 137.618 399.212 138.223C401.824 138.827 404.054 140.466 406.202 142.066C414.655 148.363 423.107 154.66 431.561 160.956C436.097 164.336 441.105 168.653 440.844 174.294C440.7 177.416 438.908 180.191 437.176 182.794C430.476 192.862 423.778 202.93 417.079 212.998C413.305 218.669 414.347 226.118 413.206 232.83C411.404 243.435 404.113 252.143 397.361 260.53C390.61 268.918 383.854 278.282 383.475 289.031C383.022 301.842 376.92 314.355 367.093 322.619C369.943 315.722 351.937 318.473 331.339 310.3C334.728 298.34 341.128 287.486 347.461 276.783Z" fill="white"/>
<path fill-rule="evenodd" clip-rule="evenodd" d="M121.282 306.776C119.998 305.728 119.589 303.959 119.362 302.315C116.739 283.293 128.005 264.518 125.997 245.42C124.963 235.578 120.43 226.395 114.724 218.319C110.784 212.742 110.563 205.27 112.033 198.597C113.503 191.924 116.468 185.684 118.468 179.15C127.362 150.097 116.54 119.059 105.84 90.6237C127.161 80.3412 152.041 82.3329 175.661 83.7257C199.281 85.1192 224.684 85.2174 244.371 72.0614C247.07 100.522 241.12 129.014 235.204 156.982C265.222 154.065 295.241 151.148 325.259 148.231C326.12 148.148 327.061 148.083 327.776 148.571C328.73 149.221 328.877 150.547 328.932 151.702C330.335 181.3 331.186 210.924 331.484 240.555C331.491 241.298 331.465 242.127 330.943 242.654C330.495 243.105 329.812 243.199 329.181 243.27C287.124 247.943 245.067 252.618 203.011 257.292C199.374 257.697 194.194 256.752 194.406 253.09C195.356 236.764 194.802 220.351 192.752 204.126C181.576 203.705 170.323 205.405 159.766 209.109C157.372 209.949 154.492 212.209 155.783 214.398C164.329 228.882 153.722 250.652 165.329 262.81C169.319 266.99 169.043 273.566 168.253 279.297C166.558 291.582 163.677 303.702 159.666 315.434C161.605 301.93 122.468 314.018 121.282 306.776Z" fill="white"/>
<path fill-rule="evenodd" clip-rule="evenodd" d="M0.989091 0.242287C1.02503 0.530378 0.868622 0.833137 0.612328 0.971685C0.408218 0.767895 0.204109 0.564106 0 0.360316C0.30598 0.2269 0.652971 0.188779 0.98078 0.252555L0.989091 0.242287Z" fill="#00160A"/>
<path fill-rule="evenodd" clip-rule="evenodd" d="M197.273 279.712C197.99 279.936 198.697 280.212 199.321 280.629C200.492 281.412 201.289 282.625 202.053 283.806C202.601 284.653 203.157 285.516 203.431 286.486C203.727 287.537 203.674 288.658 203.476 289.732C202.858 293.075 200.789 296.126 197.908 297.943C195.026 299.76 191.376 300.316 188.081 299.439C187.44 299.269 186.795 299.036 186.302 298.593C185.887 298.221 185.608 297.726 185.352 297.231C184.011 294.637 183.106 291.755 183.21 288.838C183.313 285.921 184.515 282.969 186.793 281.135C189.651 278.834 193.769 278.615 197.273 279.712ZM193.257 297.08C195.048 296.808 196.626 295.641 197.655 294.154C198.685 292.667 199.213 290.884 199.466 289.095C199.611 288.073 199.625 286.901 198.901 286.163C198.468 285.722 197.85 285.525 197.257 285.347C195.029 284.682 192.487 284.117 190.491 285.308C189.039 286.175 188.228 287.782 187.494 289.304C186.634 291.085 186.846 293.334 188.025 294.924C189.204 296.515 191.297 297.377 193.257 297.08Z" fill="#00160A"/>
<path fill-rule="evenodd" clip-rule="evenodd" d="M279.109 199.457C279.14 199.077 279.186 198.671 279.437 198.385C279.684 198.105 280.07 198.004 280.433 197.92C289.793 195.747 299.46 194.897 309.056 195.403C310.279 195.467 311.851 195.88 311.932 197.098C312.395 204.081 312.859 211.064 313.322 218.046C313.346 218.4 313.358 218.792 313.131 219.064C312.946 219.286 312.648 219.372 312.368 219.445C302.387 222.04 291.866 222.551 281.679 220.937C281.417 220.895 281.141 220.847 280.937 220.677C280.691 220.471 280.605 220.136 280.535 219.824C279.032 213.158 278.55 206.265 279.109 199.457ZM281.316 211.04C281.5 213.677 282.054 216.288 282.958 218.773C283.86 218.902 284.752 219.089 285.65 219.241C293.392 220.548 301.31 219.233 309.05 217.919C309.6 217.826 310.202 217.702 310.54 217.261C310.887 216.811 310.841 216.183 310.779 215.619C310.512 213.213 310.245 210.807 309.978 208.401C309.957 208.207 309.93 207.999 309.798 207.854C309.638 207.679 309.376 207.651 309.139 207.635C303.639 207.274 298.12 207.683 292.623 208.093C289.585 208.318 286.546 208.545 283.508 208.771C282.793 208.824 281.983 208.93 281.572 209.515C281.269 209.946 281.279 210.515 281.316 211.04ZM281.401 200.976C280.921 202.514 280.835 204.173 281.153 205.752C281.21 206.036 281.291 206.335 281.506 206.528C281.827 206.815 282.315 206.768 282.74 206.706C287.917 205.949 293.15 205.573 298.382 205.582C299.12 205.583 299.346 204.592 299.338 203.856C299.326 202.778 299.315 201.7 299.303 200.621C299.296 199.997 299.265 199.309 298.836 198.855C298.322 198.308 297.461 198.325 296.711 198.382C294.978 198.514 293.245 198.646 291.512 198.778C290.683 198.842 288.483 199.403 287.472 199.469C285.713 199.749 283.953 200.029 282.194 200.309C282.006 200.339 281.808 200.374 281.663 200.497C281.523 200.616 281.456 200.8 281.401 200.976ZM304.61 205.668C305.986 205.685 307.363 205.548 308.708 205.259C309.028 205.191 309.365 205.103 309.593 204.869C309.928 204.526 309.925 203.987 309.901 203.507C309.83 202.117 309.758 200.726 309.687 199.336C309.662 198.84 309.606 198.282 309.217 197.971C308.876 197.698 308.393 197.714 307.955 197.744C306.426 197.848 304.896 197.952 303.367 198.055C303.124 198.072 302.87 198.092 302.668 198.226C302.297 198.47 302.241 198.981 302.231 199.424C302.197 200.898 302.258 202.374 302.412 203.84C302.457 204.265 302.519 204.712 302.782 205.048C303.193 205.572 303.944 205.659 304.61 205.668Z" fill="#FFB61D"/>
<path fill-rule="evenodd" clip-rule="evenodd" d="M303.063 168.94C305.108 168.059 307.617 168.354 309.399 169.687C311.181 171.021 312.167 173.34 311.89 175.545C313.142 174.869 314.731 174.205 315.901 175.015C317.221 175.932 316.919 177.904 316.721 179.496C316.374 182.277 316.824 185.152 318.002 187.696C318.489 188.746 318.908 190.34 317.827 190.765C317.645 190.836 317.446 190.853 317.251 190.868C304.587 191.886 291.924 192.904 279.26 193.922C278.912 193.95 278.523 193.965 278.261 193.737C277.992 193.504 277.959 193.108 277.945 192.753C277.823 189.783 277.701 186.812 277.58 183.84C277.548 183.044 277.532 182.185 277.984 181.526C278.73 180.436 280.294 180.44 281.601 180.231C282.908 180.022 284.429 178.922 283.925 177.702C283.365 176.341 285.276 175.346 286.734 175.125C288.193 174.903 290.128 174.036 289.686 172.632C289.203 171.099 291.319 170.146 292.917 169.935C294.045 169.786 295.224 169.641 296.292 170.027C297.362 170.412 298.266 171.511 298.025 172.619C297.749 173.889 299.299 175.071 300.521 174.622C301.743 174.174 302.238 172.508 301.62 171.366C301.115 170.433 302.087 169.362 303.063 168.94ZM309.603 188.518C309.129 187.642 309.126 186.6 309.121 185.604C309.101 180.932 308.813 176.26 308.26 171.621C308.232 171.386 308.188 171.124 307.995 170.987C307.829 170.869 307.606 170.883 307.403 170.902C306.414 170.994 305.242 171.212 304.851 172.123C304.684 172.512 304.704 172.951 304.727 173.373C304.977 178.057 305.228 182.739 305.479 187.423C305.502 187.859 305.561 188.36 305.924 188.604C306.122 188.736 306.371 188.761 306.61 188.774C307.613 188.829 308.624 188.742 309.603 188.518ZM292.57 181.317C292.447 182.098 292.274 182.872 292.229 183.661C292.151 184.978 292.43 186.288 292.706 187.579C292.884 188.407 293.957 188.813 294.742 188.495C295.529 188.176 296.003 187.339 296.134 186.503C296.265 185.666 296.112 184.816 295.978 183.98C295.453 180.697 295.226 177.367 295.299 174.043C295.319 173.202 294.496 172.442 293.657 172.525C292.817 172.608 292.16 173.514 292.344 174.335C292.856 176.621 292.933 179.003 292.57 181.317ZM300.899 176.832C300.405 176.187 299.273 176.531 298.888 177.246C298.503 177.961 298.62 178.827 298.716 179.633C298.965 181.737 298.989 183.868 298.787 185.978C298.727 186.6 298.661 187.279 299.005 187.801C299.535 188.604 300.697 188.596 301.655 188.5C301.956 188.469 302.301 188.411 302.452 188.15C302.558 187.968 302.533 187.743 302.505 187.535C302.063 184.262 301.62 180.99 301.179 177.717C301.137 177.406 301.088 177.081 300.899 176.832ZM311.868 178.239C311.496 178.745 311.417 179.403 311.385 180.03C311.274 182.179 311.56 184.325 311.844 186.457C311.957 187.298 312.342 188.377 313.189 188.32C314.049 188.262 314.273 187.116 314.254 186.257C314.201 183.983 314.148 181.708 314.095 179.433C314.081 178.836 314.018 178.143 313.52 177.809C312.998 177.459 312.24 177.733 311.868 178.239ZM285.91 177.702C285.91 177.702 286.288 180.67 286.419 182.182C286.585 184.081 286.795 185.976 287.051 187.864C287.087 188.139 287.137 188.436 287.34 188.624C287.691 188.952 289.048 188.734 289.299 188.325C289.549 187.915 289.535 187.403 289.513 186.924C289.444 185.408 289.375 183.891 289.306 182.375C289.232 180.75 288.845 177.246 288.845 177.246L285.91 177.702ZM280.988 188.45C281.096 188.789 281.225 189.146 281.501 189.373C282.039 189.817 282.911 189.542 283.335 188.989C283.759 188.436 283.855 187.707 283.936 187.015C284.035 186.166 284.131 185.285 283.856 184.475C283.58 183.667 282.818 182.954 281.964 183.03C281.179 183.099 280.571 183.814 280.388 184.579C280.205 185.343 280.359 186.144 280.549 186.907C280.68 187.426 280.826 187.94 280.988 188.45Z" fill="#E7EAEE"/>
<path fill-rule="evenodd" clip-rule="evenodd" d="M332.324 66.9014C331.302 68.432 330.193 69.9824 328.611 70.928C327.029 71.8729 324.845 72.0569 323.424 70.8855C321.855 69.5924 321.758 67.2621 321.882 65.2366C321.93 64.4574 321.993 63.6709 322.217 62.9224C322.606 61.6242 323.454 60.5158 324.339 59.4888C325.414 58.2419 326.605 57.0397 328.095 56.3382C329.585 55.6366 331.438 55.5135 332.834 56.3865C334.506 57.4311 335.125 59.653 334.808 61.5956C334.491 63.5374 333.418 65.2638 332.324 66.9014ZM329.077 68.5207C330.366 67.1514 331.473 65.6098 332.356 63.9509C332.937 62.8594 333.432 61.6726 333.409 60.4366C333.386 59.2007 332.732 57.9083 331.581 57.4502C330.082 56.8528 328.436 57.8079 327.183 58.8232C326.291 59.5467 325.427 60.3391 324.855 61.3332C324.494 61.9621 324.259 62.6541 324.026 63.3402C323.585 64.6392 323.138 65.9932 323.306 67.3537C323.474 68.715 324.45 70.0814 325.817 70.2221C327.083 70.3526 328.206 69.4458 329.077 68.5207Z" fill="url(#paint1_linear_29230_2246)"/>
<path fill-rule="evenodd" clip-rule="evenodd" d="M68.943 84.2029C70.5445 85.8207 71.8668 87.7134 72.834 89.7726C73.8057 91.842 72.826 94.5015 70.9186 95.7674C69.0106 97.0334 66.4315 97.0166 64.3396 96.0841C62.2486 95.151 60.6044 93.41 59.3938 91.4696C58.4817 90.0064 57.7739 88.3673 57.6974 86.6461C57.6217 84.9249 58.2575 83.1135 59.6224 82.058C61.0035 80.9906 62.9454 80.8382 64.6153 81.3498C66.2852 81.8622 67.7155 82.9625 68.943 84.2029ZM62.6932 83.2184C61.3078 83.0762 60.0766 84.3451 59.8385 85.7144C59.6011 87.083 60.1244 88.4729 60.8014 89.6868C62.2699 92.3199 64.8894 94.6591 67.9073 94.5139C69.4589 94.4384 71.159 93.3667 71.1318 91.8185C71.1193 91.1485 70.7885 90.5305 70.4571 89.9478C69.5787 88.3996 68.6291 86.8668 67.3612 85.6147C66.0934 84.3627 64.4683 83.4009 62.6932 83.2184Z" fill="url(#paint2_linear_29230_2246)"/>
<path fill-rule="evenodd" clip-rule="evenodd" d="M190.052 287.91C191.165 287.067 192.548 286.522 193.942 286.611C195.337 286.701 196.717 287.499 197.3 288.765C197.927 290.124 197.536 291.813 196.56 292.948C195.583 294.082 194.111 294.709 192.626 294.916C191.612 295.057 190.404 294.93 189.849 294.073C189.581 293.659 189.52 293.15 189.467 292.66C189.37 291.781 189.273 290.902 189.176 290.023C189.136 289.651 189.096 289.265 189.216 288.91C189.357 288.492 189.7 288.177 190.052 287.91ZM194.453 290.438C194.615 290.314 194.785 290.18 194.855 289.989C195.081 289.378 194.195 288.971 193.542 288.985C192.593 289.007 191.376 289.644 191.667 290.545C191.835 291.067 192.479 291.308 193.019 291.212C193.559 291.116 194.018 290.772 194.453 290.438Z" fill="#00160A"/>
<path fill-rule="evenodd" clip-rule="evenodd" d="M347.648 6.91525C356.317 15.865 363.159 26.5676 367.638 38.182C367.945 38.9796 368.244 39.8658 367.95 40.6685C365.691 46.8518 361.33 52.0059 357.054 57.0177L348.858 66.6258C346.25 69.6833 343.641 72.7409 340.944 75.7215C327.216 90.8963 310.995 104.166 292.206 112.331C291.498 112.639 290.737 112.946 289.974 112.823C289.21 112.699 288.495 111.961 288.695 111.215C291.017 102.555 293.355 93.5016 291.491 84.7321C291.042 82.6165 290.54 79.9534 292.293 78.6808C306.482 68.3756 316.698 53.6457 326.488 39.1159C328.951 35.4624 331.406 31.7993 333.584 27.9706C337.452 21.1738 340.431 13.8741 342.422 6.3156C342.695 5.27834 344.008 4.81066 345.048 5.08262C346.089 5.35458 346.901 6.14408 347.648 6.91525ZM341.582 18.0297C340.7 17.6662 339.888 18.6492 339.439 19.4878C338.953 20.396 338.468 21.305 337.982 22.2155C329.001 39.0411 319.881 56.1256 306.194 69.3784C304.901 70.6304 303.456 72.1427 303.694 73.9248C304.458 79.6367 301.401 85.6682 296.336 88.4406C294.037 89.7 294.064 92.9482 294.4 95.5424C294.536 96.5811 294.929 97.883 295.976 97.971C299.045 98.229 301.99 99.7362 303.991 102.072C304.622 102.808 305.819 102.348 306.641 101.832C327.347 88.8497 343.257 69.6738 358.79 50.8322C359.326 50.182 359.896 49.3632 359.617 48.5693C357.266 41.8912 357.643 34.3012 360.644 27.8871C358.873 24.3735 356.763 21.0308 354.352 17.9191C350.341 19.6556 345.623 19.6967 341.582 18.0297ZM292.469 108.901C293.285 109.327 294.274 108.922 295.091 108.496C297.239 107.378 299.307 106.109 301.276 104.702C301.797 104.33 301.952 103.587 301.768 102.976C301.584 102.364 301.123 101.871 300.613 101.485C299.021 100.279 296.796 99.9627 294.93 100.675C294.584 100.807 294.242 100.979 294.004 101.26C293.726 101.591 293.624 102.03 293.535 102.452C293.083 104.585 292.728 106.737 292.469 108.901ZM350.616 13.5831C349.209 10.8393 347.04 8.48984 344.414 6.86613C343.5 7.66882 343.322 8.88934 343.141 10.1341C343.017 10.9873 342.891 11.8523 342.525 12.6015C342.406 12.8449 342.26 13.078 342.114 13.3111C341.837 13.7546 341.561 14.1959 341.471 14.7054C341.336 15.4817 341.995 16.4552 342.742 16.1986C343.349 15.9897 343.986 16.1238 344.628 16.2594C344.967 16.3305 345.307 16.4024 345.645 16.4244C347.617 16.5512 349.254 15.0103 350.616 13.5831ZM361.768 30.0268C360.26 33.0169 360.498 36.5488 360.772 39.8834L361.166 44.6673C361.209 45.1929 361.496 45.9032 362.004 45.7573C362.32 44.8762 362.921 44.149 363.524 43.4204C364.051 42.7834 364.58 42.1441 364.919 41.3994C366.07 38.8762 364.793 35.9689 363.535 33.4978L361.768 30.0268ZM294.301 83.1165C294.364 84.0526 295.338 84.7527 296.278 84.7263C297.218 84.6999 298.064 84.0936 298.613 83.3327C299.163 82.5711 299.464 81.6651 299.757 80.7737L300.726 77.8319C300.996 77.0117 301.013 75.7574 300.153 75.6614C299.842 75.6262 299.545 75.7904 299.291 75.9707C298.327 76.6547 297.625 77.6362 296.941 78.5994L295.08 81.2223C294.676 81.7911 294.254 82.4215 294.301 83.1165ZM72.2614 75.264C65.7214 63.3212 61.5459 50.0955 60.0457 36.5693C59.9531 35.7373 59.0336 35.1992 58.195 35.2278C57.3571 35.2564 56.5956 35.6984 55.8827 36.1397C45.7581 42.4 37.1402 51.0646 30.9456 61.213C30.3186 62.24 29.7005 63.3307 29.6211 64.5307C29.5432 65.708 29.9945 66.8508 30.459 67.9358C37.2923 83.903 48.6878 97.4461 60.2552 110.419C69.1649 120.411 78.7022 130.526 91.1245 135.555C93.1325 136.368 96.0482 136.699 96.8993 134.711C97.147 134.133 97.1338 133.483 97.1213 132.854L97.1206 132.83C96.9839 126.093 97.7512 119.338 99.3969 112.803C99.7776 111.291 99.9753 109.251 98.5568 108.596C93.2229 106.131 89.5677 101.16 86.1492 96.3891C81.2365 89.5343 76.3113 82.659 72.2614 75.264ZM83.8075 127.47C83.0725 127.665 82.339 127.204 81.7253 126.755C70.4195 118.493 61.6576 107.312 53.0492 96.2799L37.8575 76.8122C40.422 75.1834 40.7476 71.6442 40.8034 68.6124C40.8754 64.6715 40.9291 60.6148 39.5017 56.9393C39.1842 56.1227 39.5973 55.2173 40.0397 54.4601C41.936 51.2142 44.5666 48.3971 47.6786 46.28C47.98 46.0748 48.2989 45.8717 48.6606 45.8204C49.6131 45.6862 50.3444 46.6106 50.8538 47.425C52.8648 50.6417 55.6291 54.2798 59.421 54.0151C60.8645 53.914 61.6657 55.6103 62.0868 56.9913C67.3244 74.1652 77.1587 89.6553 88.6916 103.437C90.1903 105.227 90.5658 107.645 90.9385 110.04C91.3538 112.711 91.7654 115.355 93.7242 117.071C95.397 118.538 95.0868 121.171 94.6355 123.346C94.5429 123.791 94.4327 124.268 94.0938 124.571C93.8425 124.797 93.5022 124.891 93.1751 124.978L83.8075 127.47ZM57.0043 50.0369C54.9301 48.5913 53.1382 46.7448 51.7586 44.6292C51.4602 44.1718 51.1706 43.6586 51.2228 43.1154C51.2801 42.5246 51.7255 42.0518 52.1687 41.6559C53.2639 40.6788 54.5016 39.8607 55.8305 39.2354C56.3171 39.006 56.9455 38.8205 57.3505 39.1746C57.5879 39.3827 57.6636 39.7163 57.7253 40.0264L59.6415 49.5817C59.7547 50.1461 59.16 50.6548 58.5831 50.6717C58.0054 50.6878 57.4776 50.3668 57.0043 50.0369ZM38.0472 68.5185C38.006 70.316 37.8686 72.3333 36.5176 73.5238C36.2354 73.5568 36.048 73.2474 35.937 72.9865C34.9638 70.6891 33.9775 68.336 33.8239 65.8473C33.671 63.3579 34.5074 60.6624 36.547 59.2198C36.8227 59.0241 37.2276 58.8628 37.4709 59.0974C37.5687 59.1912 37.6106 59.3283 37.6466 59.4588C38.2008 61.4908 38.1574 63.6306 38.1096 65.7351L38.0472 68.5185ZM93.084 128.302C93.4118 128.57 93.4463 129.048 93.4551 129.47L93.5529 134.09C91.6522 133.039 89.8323 131.845 88.1117 130.521C87.7861 130.271 87.4274 129.864 87.6273 129.505C87.7265 129.326 87.9324 129.241 88.1242 129.17C89.3531 128.718 90.6247 128.379 91.916 128.158C92.3159 128.09 92.7701 128.047 93.084 128.302ZM93.1935 110.105C93.1758 109.896 93.1758 109.669 93.3 109.5C93.6286 109.055 94.3408 109.459 94.6414 109.922C95.3661 111.038 95.5264 112.501 95.0604 113.747C93.9954 112.837 93.3096 111.499 93.1935 110.105ZM376.225 75.0266C378.119 72.6478 381.571 72.3055 384.616 72.3795C385.327 72.3971 386.059 72.4308 386.707 72.7255C388.508 73.5443 388.891 75.8915 388.952 77.8649C389.007 79.6601 388.996 81.4796 388.559 83.222C388.122 84.9645 387.216 86.6432 385.769 87.7127C385.119 88.1936 384.364 88.544 383.565 88.6774C382.332 88.8834 381.069 88.5674 379.896 88.132C378.334 87.5522 376.852 86.7553 375.507 85.7723C374.85 85.2922 374.171 84.664 374.15 83.8517C374.102 81.9788 374.312 80.1 374.773 78.2835C375.068 77.1231 375.478 75.9641 376.225 75.0266ZM381.136 86.8741C383.568 87.5698 386.154 85.6939 387.076 83.3437C387.997 80.9943 387.657 78.3546 387.149 75.8828C386.955 74.9335 385.938 74.4035 385.001 74.1498C383.55 73.7569 382.007 73.7049 380.533 73.9988C379.8 74.1447 379.051 74.3954 378.537 74.9356C378.257 75.2303 378.063 75.5947 377.873 75.9531L376.449 78.6383C376.198 79.1111 375.946 79.5876 375.798 80.1007C375.358 81.6372 375.94 83.3437 377.016 84.5276C378.091 85.7122 379.596 86.4328 381.136 86.8741ZM348.591 114.025C350.821 114.8 352.842 116.165 354.392 117.942C355.724 119.47 356.74 121.452 356.459 123.457C356.357 124.194 356.085 124.895 355.774 125.571C354.598 128.129 352.575 130.582 349.797 131.078C348.339 131.337 346.836 131.026 345.434 130.55C343.814 130 342.268 129.229 340.855 128.264C340.106 127.753 339.361 127.145 339.033 126.3C338.806 125.718 338.799 125.078 338.808 124.453C338.828 122.909 338.931 121.339 339.471 119.892C340.154 118.061 341.49 116.549 342.907 115.201C343.476 114.658 344.081 114.124 344.813 113.833C346.01 113.357 347.373 113.601 348.591 114.025ZM350.871 127.482C352.482 125.892 353.419 123.587 353.164 121.34C352.909 119.093 351.384 116.985 349.252 116.218C348.366 115.899 347.383 115.81 346.475 116.06C345.985 116.196 345.526 116.426 345.097 116.698C343.262 117.862 341.973 119.848 341.66 121.995C341.347 124.142 342.015 126.413 343.443 128.05C344.357 129.098 345.848 129.548 347.23 129.373C348.612 129.2 349.88 128.459 350.871 127.482ZM147.357 100.78C147.282 99.7208 145.862 99.4437 144.798 99.4745C139.21 99.6387 133.63 100.056 128.08 100.726C127.169 100.836 127.095 102.301 127.827 102.855C128.558 103.409 129.577 103.306 130.486 103.176L147.357 100.78ZM129.494 107.943C129.543 107.398 130.23 107.201 130.775 107.139L163.687 103.422C164.283 103.355 164.917 103.294 165.453 103.561C165.988 103.828 166.333 104.56 165.983 105.045C165.726 105.402 165.232 105.475 164.792 105.517L131.129 108.775C130.429 108.843 129.433 108.642 129.494 107.943ZM203.278 113.473C201.437 113.876 199.546 113.213 197.781 112.555C192.071 110.427 186.383 108.24 180.718 105.994C178.431 105.087 175.922 106.445 173.866 107.792C167.914 111.692 162.184 115.928 156.711 120.473C155.305 121.64 153.142 120.821 151.724 119.668C151.425 119.424 151.13 119.164 150.834 118.903C149.73 117.93 148.612 116.945 147.184 116.742C144.988 116.431 143.057 118.091 141.466 119.632L131.208 129.568C129.827 130.905 128.376 133.044 129.603 134.521C130.414 135.495 131.901 135.445 133.161 135.3C139.742 134.539 146.291 133.472 152.837 132.405C163.657 130.643 174.471 128.882 185.415 128.503C187.839 128.42 190.266 128.404 192.693 128.389C194.213 128.379 195.732 128.37 197.251 128.343C204.104 128.225 210.95 127.764 217.756 126.965C218.085 126.926 218.46 126.858 218.631 126.575C218.76 126.361 218.728 126.091 218.691 125.844L215.808 106.28C215.661 105.285 215.406 104.137 214.495 103.707C213.575 103.273 212.491 103.832 211.735 104.513C210.553 105.578 209.642 106.993 208.744 108.388C207.271 110.676 205.831 112.913 203.278 113.473ZM156.459 124.178C162.617 119.128 169.037 114.398 175.685 110.012C177.051 109.112 178.71 108.19 180.236 108.781L196.358 115.029C199.048 116.071 201.991 117.128 204.753 116.292C207.964 115.32 209.884 112.134 211.501 109.201C211.816 108.631 212.731 108.696 213.184 109.165C213.636 109.634 213.751 110.323 213.844 110.967L215.024 119.126C215.206 120.379 215.384 121.679 215.02 122.892C214.657 124.104 213.592 125.206 212.322 125.182C191.57 124.782 170.778 126.489 150.371 130.267C149.738 130.384 149.106 130.503 148.474 130.622C143.599 131.54 138.705 132.462 133.751 132.478C136.142 129.098 139.174 126.228 142.185 123.381C143.837 121.819 145.904 120.133 148.123 120.644C149.322 120.921 150.241 121.779 151.155 122.634L151.156 122.634C151.448 122.908 151.741 123.181 152.043 123.435C153.283 124.48 155.205 125.206 156.459 124.178ZM422.695 181.09C422.144 181.295 421.53 181.155 420.97 180.979C417.175 179.79 414.093 177.129 411.064 174.514C410.654 174.16 410.245 173.806 409.835 173.458C404.817 169.188 399.37 165.419 393.603 162.225C393.016 161.9 392.401 161.558 392.042 160.993C391.682 160.427 391.693 159.566 392.247 159.189C394.833 157.428 396.51 154.406 396.633 151.286C396.666 150.454 397.608 149.9 398.44 149.967C399.272 150.034 399.997 150.532 400.677 151.014L427.028 169.669C427.541 170.032 428.093 170.453 428.219 171.068C428.321 171.57 428.111 172.077 427.898 172.543C426.762 175.045 425.455 177.469 423.99 179.793C423.658 180.32 423.279 180.873 422.695 181.09ZM396.332 158.959C396.022 159.505 395.755 160.293 396.256 160.669L417.759 176.817C418.937 177.701 420.767 178.53 421.694 177.387C422.759 176.075 423.753 174.706 424.672 173.287C424.923 172.9 425.18 172.456 425.089 172.003C425.006 171.59 424.658 171.29 424.329 171.024C416.438 164.643 408.082 158.832 399.35 153.652L396.332 158.959ZM385.631 168.834C385.979 168.24 386.4 167.59 387.074 167.444C387.589 167.332 388.114 167.553 388.588 167.783C391.177 169.036 393.548 170.736 395.566 172.784C396.051 173.277 396.111 174.07 395.895 174.726C395.679 175.383 395.234 175.935 394.798 176.471C394.096 177.333 393.348 178.23 392.313 178.639C391.196 179.08 389.897 178.867 388.839 178.299C387.781 177.731 386.932 176.842 386.184 175.904C385.207 174.682 384.334 173.215 384.485 171.659C384.584 170.64 385.113 169.719 385.631 168.834ZM390.16 175.681C391.788 176.313 392.829 175.812 392.873 174.747C392.899 174.075 392.311 173.557 391.777 173.147L390.16 171.906C389.625 171.496 389.035 171.067 388.361 171.071C387.687 171.075 387 171.769 387.277 172.382C387.235 172.679 388.531 175.05 390.16 175.681ZM383.732 188.792C384.129 189.009 384.55 189.221 385.003 189.231C385.455 189.24 385.946 188.984 386.057 188.547C386.318 187.52 387 186.668 387.667 185.834C387.74 185.743 387.813 185.652 387.884 185.561C388.616 184.639 389.321 183.593 389.34 182.418C389.36 181.243 388.383 179.99 387.216 180.15C386.296 180.277 385.441 179.675 384.772 179.032C384.665 178.93 384.56 178.824 384.453 178.719C383.894 178.162 383.326 177.597 382.584 177.356C381.701 177.069 380.498 177.525 380.428 178.449C380.287 180.309 378.737 181.709 377.299 182.903C376.868 183.26 377.257 183.945 377.66 184.333C379.472 186.081 381.521 187.585 383.732 188.792ZM384.02 185.248L381.187 183.337C380.467 182.851 380.525 181.661 381.167 181.076C381.809 180.491 382.807 180.446 383.625 180.74C384.444 181.032 385.124 181.606 385.786 182.169C386.223 182.541 386.284 183.22 386.084 183.758C385.884 184.296 385.476 184.727 385.079 185.142C384.942 185.285 384.791 185.435 384.595 185.46C384.387 185.487 384.193 185.364 384.02 185.248ZM406.472 185.373L407.857 182.439C408.281 181.54 408.691 180.428 408.119 179.616C407.92 179.334 407.627 179.135 407.341 178.942L402.302 175.556C401.759 175.19 401.17 174.811 400.515 174.822C399.738 174.833 399.088 175.386 398.537 175.932C397.711 176.748 396.939 177.618 396.227 178.536C395.685 179.234 395.24 180.383 395.98 180.867L403.69 185.912C404.298 186.31 405.071 186.719 405.71 186.372C406.085 186.169 406.29 185.759 406.472 185.373ZM404.764 183.296C404.439 183.371 404.101 183.288 403.783 183.192C401.837 182.607 400.055 181.487 398.687 179.988C398.232 179.49 398.49 178.609 399.067 178.259C399.646 177.91 400.398 177.99 401.021 178.251C401.424 178.42 401.792 178.655 402.161 178.89C402.363 179.018 402.565 179.147 402.773 179.266C402.997 179.393 403.231 179.51 403.464 179.626C404.127 179.957 404.79 180.29 405.242 180.862C405.853 181.638 405.727 183.075 404.764 183.296ZM407.367 186.574C408.256 186.363 408.527 185.46 408.809 184.521C409.043 183.744 409.283 182.944 409.885 182.49C410.921 181.709 412.39 182.362 413.506 183.025L417.058 185.131C417.624 185.467 418.204 185.815 418.61 186.332C419.015 186.849 419.214 187.582 418.931 188.174C418.741 188.57 418.383 188.833 418.022 189.096C417.726 189.313 417.428 189.531 417.22 189.825C416.954 190.202 416.854 190.675 416.756 191.142C416.633 191.729 416.511 192.306 416.063 192.675C415.245 193.347 414.03 192.809 413.126 192.257L408.122 189.208C407.618 188.901 407.086 188.563 406.837 188.027C406.589 187.492 406.792 186.71 407.367 186.574ZM413.927 189.602C414.644 189.358 415.219 188.828 415.772 188.312C416.172 187.938 415.637 187.323 415.159 187.054L412.093 185.333C411.773 185.153 411.328 184.99 411.08 185.26C410.282 186.128 410.166 187.547 410.813 188.533C411.46 189.52 412.808 189.983 413.927 189.602ZM378.755 189.495C378.068 189.302 377.37 189.106 376.809 188.725C375.939 188.132 374.727 188.276 373.814 188.8C372.9 189.323 372.219 190.162 371.56 190.981C371.194 191.436 370.818 191.91 370.678 192.476C370.538 193.042 370.705 193.729 371.216 194.012L376.562 196.984C376.967 197.209 377.419 197.441 377.871 197.342C378.321 197.242 378.632 196.843 378.903 196.471L380.279 194.583C381.044 193.532 381.845 192.194 381.285 191.021C380.836 190.081 379.81 189.792 378.755 189.495ZM377.063 194.385C376.783 194.458 376.496 194.324 376.238 194.193L372.596 192.345C373.296 191.356 374.628 190.977 375.836 191.096C377.043 191.216 378.164 191.752 379.256 192.279L377.583 194.012C377.433 194.168 377.272 194.329 377.063 194.385ZM351.833 120.469C352.396 121.327 352.22 122.472 351.846 123.428C351.353 124.686 350.52 125.853 349.342 126.523C348.166 127.192 346.62 127.29 345.473 126.57C344.326 125.85 343.75 124.25 344.364 123.046C344.507 122.767 344.7 122.52 344.894 122.273C345.08 122.037 345.266 121.801 345.407 121.536C345.498 121.363 345.57 121.178 345.642 120.994C345.746 120.728 345.85 120.462 346.014 120.231C346.597 119.406 347.747 119.244 348.76 119.259C349.908 119.275 351.203 119.512 351.833 120.469ZM349.27 121.014C347.7 120.994 346.227 122.308 346.072 123.866C346.008 124.503 346.279 125.295 346.915 125.383C347.391 125.448 347.809 125.081 348.13 124.723C348.807 123.966 349.389 123.124 349.857 122.223C350.013 121.92 350.152 121.533 349.946 121.262C349.795 121.064 349.519 121.017 349.27 121.014ZM386.829 80.1652C386.708 78.7314 385.746 77.321 384.348 76.9611C382.573 76.5051 380.853 77.7513 379.444 78.9205C379.027 79.2665 378.592 79.6389 378.415 80.1498C378.115 81.0178 378.655 81.9319 379.186 82.6811C379.793 83.5395 380.442 84.4023 381.33 84.9696C382.216 85.537 383.399 85.7576 384.329 85.2643C384.803 85.0129 385.173 84.6024 385.493 84.1728C386.355 83.0183 386.949 81.5991 386.829 80.1652ZM382.892 83.8422C382.291 83.9316 381.667 83.6897 381.224 83.2741C380.561 82.651 380.297 81.6489 380.529 80.77C380.773 79.8449 381.552 79.0803 382.484 78.8523C383.416 78.6236 384.461 78.941 385.107 79.6484C385.083 79.8412 385.063 80.0355 385.042 80.2297C384.974 80.8895 384.905 81.5499 384.676 82.1686C384.38 82.9706 383.74 83.7154 382.892 83.8422ZM335.115 307.542C338.388 295.995 344.566 285.515 350.682 275.181C351.715 273.434 352.997 271.511 355.003 271.18C355.794 271.049 356.211 270.191 356.48 269.439C359.797 260.16 360.117 249.842 357.38 240.377C356.6 237.675 357.561 234.811 358.512 232.165L365.878 211.673C365.112 210.351 363.663 209.771 362.196 209.183C360.969 208.691 359.728 208.194 358.862 207.253C356.418 204.595 358.262 200.37 360.177 197.31L393.747 143.691C395.119 141.501 398.127 140.814 400.648 141.398C403.17 141.981 405.324 143.564 407.397 145.109L431.881 163.348C436.261 166.611 441.097 170.779 440.845 176.226C440.705 179.24 438.976 181.919 437.303 184.433L417.899 213.595C415.39 217.366 415.085 221.95 414.78 226.555C414.641 228.639 414.503 230.726 414.16 232.744C412.487 242.589 405.912 250.743 399.614 258.555C399.362 258.867 399.112 259.178 398.862 259.489C392.342 267.586 385.82 276.628 385.453 287.007C385.016 299.376 379.125 311.458 369.637 319.436L377.893 299.461C379.856 294.71 381.674 288.8 378.389 284.842C376.902 283.051 374.655 282.104 372.498 281.222L359.676 275.975C358.792 275.613 357.88 275.245 356.925 275.239C353.946 275.222 352.174 278.443 350.966 281.159C346.788 290.554 341.451 299.436 335.115 307.542ZM377.277 280.414C379.475 281.225 382.571 281.719 383.613 279.624C388.655 269.486 393.836 259.154 401.862 251.156C406.488 246.545 409.324 240.394 410.928 234.07C412.533 227.747 412.987 221.199 413.434 214.692C411.487 215.399 411.318 218.02 411.326 220.088C411.344 224.645 410.545 229.204 408.978 233.485C408.65 234.381 408.21 235.349 407.332 235.727C406.454 236.105 405.161 235.346 405.455 234.438C407.721 227.475 408.565 220.055 407.922 212.763C407.722 210.501 407.3 208.083 405.688 206.481C405.863 210.051 406.038 213.637 405.675 217.193C405.047 223.345 402.836 229.211 400.643 234.996C400.359 235.747 400.015 236.566 399.292 236.918C398.568 237.272 397.446 236.712 397.635 235.932L400.918 222.397C402.723 214.955 404.498 206.949 401.704 199.817C400.296 199.723 399.965 201.73 400.091 203.131C400.951 212.729 398.291 222.254 395.657 231.525C395.35 232.608 394.262 233.961 393.416 233.217C393.051 232.896 393.035 232.343 393.064 231.859C393.23 229.132 393.98 226.493 394.728 223.856C394.96 223.038 395.192 222.22 395.407 221.4C397.386 213.839 397.891 205.897 396.885 198.148C395.151 200.365 394.416 203.177 393.721 205.902L389.601 222.079C387.737 229.391 385.357 237.431 378.899 241.359C378.384 241.672 377.788 241.963 377.201 241.824C376.473 241.652 376.06 240.901 375.756 240.219C371.633 230.958 371.118 220.154 374.341 210.545C374.537 209.963 373.942 209.353 373.328 209.305C372.713 209.257 372.138 209.59 371.634 209.945C366.345 213.667 364.32 220.409 362.637 226.642L360.401 234.93C360.074 236.141 359.746 237.363 359.677 238.615C359.574 240.517 360.072 242.379 360.567 244.231C360.682 244.659 360.797 245.088 360.904 245.517C363.055 254.127 362.084 263.48 358.207 271.468C357.635 272.646 359.144 273.717 360.375 274.172L377.277 280.414ZM385.632 201.311C384.75 200.705 383.805 200.014 383.532 198.981C383.115 197.397 384.627 195.806 386.255 195.593C387.883 195.38 389.476 196.164 390.825 197.097C392.726 198.412 395.131 196.407 396.554 194.588C394.635 193.443 392.803 191.665 392.727 189.436C392.652 187.206 395.37 185.082 397.179 186.394C397.881 186.904 398.73 187.215 399.57 187.523C400.828 187.985 402.065 188.439 402.755 189.538C403.54 190.788 403.261 192.478 402.462 193.718C401.663 194.959 400.433 195.85 399.232 196.711C400.956 196.881 402.634 197.494 404.06 198.474L405.614 193.957C405.735 193.607 405.865 193.24 406.142 192.993C406.675 192.517 407.504 192.664 408.186 192.88C409.976 193.446 411.731 194.33 412.912 195.786C414.094 197.242 414.585 199.357 413.76 201.039C412.935 202.721 410.605 203.617 409.027 202.604C408.7 202.393 408.37 202.112 408.041 201.831C407.161 201.079 406.281 200.327 405.433 200.929C408.026 202.943 409.807 205.969 410.307 209.209C418.471 196.806 426.548 184.345 434.536 171.829C435.298 170.634 435.914 168.751 434.672 168.064C429.366 165.128 424.678 161.197 420 157.275C414.095 152.325 408.209 147.39 401.123 144.492C400.673 144.308 400.182 144.13 399.712 144.254C399.22 144.383 398.873 144.811 398.563 145.214C385.369 162.388 373.528 180.597 363.185 199.616C361.741 202.269 363.673 205.432 365.521 207.823C366.444 209.017 368.225 210.279 369.232 209.154C370.501 207.736 372.581 206.925 374.378 207.558C376.175 208.192 377.293 210.522 376.316 212.154C375.609 213.334 376.993 214.646 378.201 215.307C380.617 216.627 383.095 217.833 385.624 218.92C385.976 219.072 386.385 219.22 386.727 219.049C387.053 218.885 387.185 218.498 387.288 218.149L390.089 208.534C390.55 206.953 390.858 204.901 389.498 203.967L385.632 201.311ZM435.753 174.358C435.381 174.23 435.041 174.602 434.823 174.928L413.844 206.248C413.279 207.091 412.702 207.967 412.537 208.966C412.372 209.966 412.741 211.129 413.653 211.574C415.164 212.311 416.744 210.762 417.714 209.392L437.206 181.839C438.653 179.793 437.428 176.997 436.189 174.819C436.082 174.631 435.958 174.428 435.753 174.358ZM376.687 216.181C376.318 215.913 375.766 216.073 375.457 216.408C375.148 216.743 375.021 217.203 374.904 217.644C374.618 218.728 374.329 219.823 374.288 220.944C374.245 222.065 374.449 223.179 374.652 224.281L376.661 235.173C376.745 235.63 376.844 236.115 377.169 236.447C377.494 236.78 378.126 236.852 378.389 236.469C381.362 232.132 384.378 227.71 385.933 222.691C386.126 222.066 386.182 221.189 385.569 220.958C382.412 219.774 379.415 218.162 376.687 216.181ZM399.887 189.309C398.88 188.352 397.549 187.741 396.166 187.6C394.904 187.472 394.177 189.239 394.753 190.365C395.328 191.492 396.6 192.05 397.777 192.52C398.607 192.853 399.615 193.166 400.339 192.641C401.38 191.888 400.818 190.193 399.887 189.309ZM391.605 201.929C392.016 201.638 392.069 201.042 391.954 200.553C391.521 198.71 389.494 197.768 387.675 197.228C386.971 197.019 386.095 196.873 385.599 197.414C385.185 197.864 385.273 198.611 385.63 199.108C385.987 199.605 386.547 199.912 387.086 200.201L389.897 201.711C390.431 201.998 391.11 202.28 391.605 201.929ZM407.597 195.285C407.002 196.079 407.063 197.235 407.56 198.095C408.056 198.954 408.916 199.55 409.823 199.957C410.134 200.097 410.475 200.219 410.81 200.152C411.097 200.095 411.343 199.902 411.519 199.668C412.168 198.803 411.853 197.499 411.109 196.713C410.365 195.927 409.307 195.533 408.288 195.165C408.112 195.102 407.908 195.04 407.747 195.136C407.732 195.145 407.718 195.155 407.705 195.166C407.664 195.2 407.629 195.242 407.597 195.285ZM125.719 267.319C126.108 264.45 126.654 261.294 128.913 259.477C130.715 258.029 133.188 257.798 135.502 257.753C143.082 257.608 150.686 258.836 157.832 261.358C160.093 262.157 162.459 263.208 163.695 265.257C165.034 267.476 164.708 270.275 164.337 272.838L158.597 312.607C162.555 301.09 165.397 289.191 167.069 277.131C167.85 271.505 168.122 265.048 164.184 260.945C158.038 254.539 158.206 245.413 158.376 236.135C158.523 228.127 158.672 220.005 154.767 213.418C153.493 211.269 156.334 209.051 158.697 208.225C169.112 204.589 180.215 202.919 191.242 203.334C193.263 219.261 193.81 235.375 192.873 251.403C192.663 254.998 197.774 255.925 201.363 255.528L325.844 241.762C326.467 241.693 327.141 241.6 327.583 241.157C328.098 240.639 328.124 239.826 328.116 239.096C327.822 210.008 326.983 180.925 325.599 151.868C325.545 150.734 325.4 149.432 324.459 148.793C323.753 148.315 322.824 148.378 321.975 148.46L233.124 157.05C238.962 129.594 244.831 101.623 242.169 73.6821C222.746 86.5977 197.683 86.501 174.379 85.1338C173.411 85.0767 172.44 85.0187 171.467 84.9608C149.041 83.6237 125.653 82.2302 105.491 91.9058C116.048 119.821 126.726 150.292 117.951 178.815C117.174 181.338 116.251 183.816 115.327 186.294C113.904 190.114 112.481 193.932 111.602 197.905C110.151 204.457 110.37 211.792 114.257 217.267C119.886 225.196 124.36 234.211 125.38 243.873C126.348 253.042 124.185 262.135 122.024 271.218C119.766 280.708 117.51 290.186 118.832 299.728C119.057 301.342 119.461 303.079 120.728 304.108L125.719 267.319ZM134.526 152.105C136.88 152.188 137.816 155.135 138.117 157.465L140.5 175.915C135.847 173.51 129.3 177.593 129.434 182.82C125.513 175.271 124.917 166.62 124.327 158.056C124.199 156.193 124.071 154.334 123.909 152.492C122.177 132.789 116.224 113.732 110.307 94.8555C109.463 92.1638 113.108 90.4184 115.906 90.0086C134.265 87.3242 152.847 87.6951 171.437 88.066C179.864 88.2339 188.292 88.4018 196.703 88.2859C211.646 88.0792 227.458 86.6681 239.58 77.9499C242.305 96.0651 238.602 114.341 234.946 132.388C234.451 134.829 233.957 137.266 233.48 139.698C229.478 160.107 226.754 181.861 234.411 201.203C234.734 202.019 233.634 202.634 232.774 202.812C226.475 204.122 219.964 204.405 213.575 203.645C210.835 203.318 208.124 202.802 205.412 202.287C203.37 201.898 201.327 201.511 199.272 201.203C183.798 198.887 167.647 201.291 153.525 208.011C152.959 208.28 152.286 208.153 151.693 207.949C148.833 206.962 146.793 204.326 145.775 201.483C144.757 198.641 144.611 195.573 144.475 192.557L143.906 179.91C143.885 179.455 144.005 178.839 144.46 178.824C169.198 178.054 193.908 176.39 218.526 173.839C217.485 168.029 217.382 162.054 218.221 156.213C218.751 152.525 215.275 149.164 211.572 148.67C207.87 148.176 204.209 149.849 201.134 151.965C199.985 152.757 198.88 153.617 197.777 154.476C195.93 155.914 194.085 157.35 192.031 158.464C190.687 159.192 189.07 159.78 187.659 159.191C185.931 158.471 185.351 156.421 184.834 154.591C184.802 154.476 184.769 154.362 184.737 154.249C184.063 151.893 182.951 149.547 180.994 148.065C179.037 146.582 176.085 146.214 174.153 147.728C172.501 149.023 171.98 151.267 171.703 153.343C171.678 153.528 171.654 153.714 171.63 153.9C171.385 155.81 171.131 157.783 169.989 159.315C168.735 160.996 165.936 161.716 164.561 160.133C161.84 157.001 157.066 156.344 153.06 157.443C149.054 158.542 145.626 161.081 142.303 163.567C140.297 160.438 140.132 156.224 141.884 152.948L141.914 152.893C142.244 152.278 142.622 151.572 142.33 150.945C142.15 150.557 141.752 150.319 141.358 150.15C139.001 149.142 135.99 150.004 134.526 152.105ZM205.359 204.992C206.677 205.254 208.297 205.84 208.378 207.179C209.155 219.937 219.322 231.404 231.823 234.227C244.323 237.052 258.177 231.341 265.465 220.826C272.754 210.312 273.324 195.704 267.348 184.396C260.938 172.269 245.362 165.829 232.229 169.876C231.62 167.197 231.689 164.366 232.427 161.718C232.564 161.227 232.743 160.713 233.141 160.392C233.529 160.079 234.055 160.008 234.551 159.947L271.546 155.504C274.798 155.113 278.058 154.722 281.334 154.694C295.421 154.579 309.497 153.178 323.329 150.515C325.478 179.299 326.49 208.167 326.36 237.031C326.354 238.4 325.936 240.219 324.563 240.259C301.281 240.935 278.182 243.99 255.074 247.045C239.548 249.099 224.019 251.152 208.428 252.485C204.952 252.782 201.453 253.044 197.98 252.713C197.351 252.654 196.641 252.526 196.299 251.996C196.093 251.675 196.07 251.275 196.052 250.895L193.977 204.729C193.949 204.133 193.986 203.414 194.504 203.115C194.847 202.916 195.277 202.987 195.666 203.065L205.359 204.992ZM141.661 194.304C141.293 196.702 140.879 199.399 142.454 201.214C148.329 207.98 154.432 215.21 155.993 224.025C156.722 228.141 156.409 232.377 156.098 236.596C155.704 241.91 155.313 247.198 157.011 252.183C157.055 252.313 157.1 252.444 157.147 252.574C157.458 253.463 157.776 254.369 157.675 255.297C157.559 256.361 156.633 257.432 155.575 257.25L143.293 255.138C139.226 254.438 134.929 253.757 131.066 255.205C130.318 255.485 129.459 254.994 129.059 254.306C128.658 253.617 128.606 252.788 128.571 251.993C128.529 251.033 128.498 250.066 128.466 249.097C128.268 242.999 128.066 236.787 125.236 231.444L116.206 214.397C114.873 211.88 113.509 209.252 113.417 206.407C113.356 204.507 113.87 202.641 114.38 200.81L118.884 184.627C119.833 181.221 120.836 177.705 123.082 174.969C128.537 184.201 129.076 196.144 124.473 205.827C124.047 206.723 125.348 207.645 126.275 207.288C127.202 206.931 127.673 205.918 128 204.982C129.309 201.231 129.769 197.279 130.229 193.319C130.601 190.116 130.972 186.91 131.796 183.804C132.301 181.901 133.029 179.959 134.502 178.649C135.975 177.34 138.378 176.891 139.921 178.118C141.103 179.056 141.487 180.659 141.712 182.149C142.305 186.078 142.302 190.096 141.703 194.025C141.69 194.118 141.675 194.21 141.661 194.304ZM162.852 162.356C164.663 163.738 166.436 165.091 168.608 164.841C171.369 164.522 173.089 161.688 173.891 159.033C174.067 158.453 174.223 157.858 174.379 157.262C174.938 155.136 175.501 152.992 176.964 151.393C177.388 150.927 178.001 150.495 178.605 150.677C179.094 150.825 179.379 151.319 179.606 151.775C179.928 152.423 180.233 153.08 180.537 153.738C181.397 155.595 182.256 157.452 183.504 159.065C185.195 161.25 187.825 162.968 190.575 162.668C193.034 162.399 194.956 160.662 196.829 158.969C197.214 158.621 197.595 158.276 197.979 157.946C202.491 154.066 208.367 151.796 214.321 151.632C213.518 153.634 214.054 155.818 214.579 157.962C214.706 158.477 214.832 158.991 214.938 159.499C215.779 163.507 215.354 167.77 213.739 171.535L173.965 174.589C164.68 175.302 155.371 176.015 146.064 175.689C145.476 175.668 144.874 175.64 144.333 175.409C143.311 174.973 142.704 173.886 142.484 172.799C141.992 170.364 143.118 167.828 144.823 166.016C146.528 164.204 148.755 162.984 150.942 161.795C153.219 160.557 155.746 159.278 158.284 159.806C159.973 160.158 161.424 161.265 162.852 162.356ZM238.169 220.14C232.143 220.016 226.922 215.114 225.133 209.374C224.768 208.202 225.528 206.916 226.576 206.272C227.624 205.629 228.891 205.477 230.114 205.34L238.943 204.351C236.258 199.146 234.346 193.546 233.287 187.789C233.192 187.267 233.104 186.718 233.27 186.213C233.56 185.327 234.518 184.861 235.403 184.564C242.577 182.16 251.19 185.079 255.408 191.345C259.626 197.611 259.073 206.668 254.122 212.376C251.979 214.848 249.171 216.672 246.212 218.075C243.688 219.272 240.962 220.197 238.169 220.14ZM266.762 189.204C267.834 192.735 268.143 196.45 268.291 200.136C265.883 199.773 263.452 199.566 261.017 199.519C260.541 193.318 256.403 187.716 250.963 184.677C245.523 181.638 238.956 180.981 232.81 182.022C232.757 181.147 232.598 180.235 232.438 179.323C232.016 176.917 231.595 174.51 233.155 172.801C234.097 171.769 235.534 171.357 236.909 171.101C243.176 169.937 249.859 171.156 255.307 174.46C260.754 177.763 264.914 183.119 266.762 189.204ZM222.57 208.748C222.56 208.862 222.551 208.975 222.545 209.082C222.504 209.939 222.905 210.725 223.301 211.504C223.408 211.712 223.513 211.92 223.61 212.128C224.07 213.115 224.292 214.414 223.524 215.188C221.667 217.057 220.026 219.14 218.643 221.382C218.301 221.937 217.46 221.982 216.898 221.652C216.335 221.321 215.987 220.731 215.662 220.167C213.607 216.593 211.501 212.855 211.245 208.744C211.212 208.232 211.269 207.613 211.723 207.375C211.924 207.27 212.16 207.267 212.386 207.266L221.577 207.239C221.796 207.238 222.028 207.24 222.219 207.348C222.67 207.604 222.618 208.197 222.57 208.748Z" fill="#00160A"/>
<defs>
<linearGradient id="paint0_linear_29230_2246" x1="153.214" y1="11.2185" x2="470.822" y2="92.9313" gradientUnits="userSpaceOnUse">
<stop stop-color="#EB1484"/>
<stop offset="0.9999" stop-color="#C91CC3"/>
<stop offset="1" stop-color="#C81CC5"/>
<stop offset="1" stop-color="#C81CC5"/>
</linearGradient>
<linearGradient id="paint1_linear_29230_2246" x1="326.113" y1="55.7715" x2="337.165" y2="57.5505" gradientUnits="userSpaceOnUse">
<stop stop-color="#EB1484"/>
<stop offset="0.9999" stop-color="#C91CC3"/>
<stop offset="1" stop-color="#C81CC5"/>
<stop offset="1" stop-color="#C81CC5"/>
</linearGradient>
<linearGradient id="paint2_linear_29230_2246" x1="62.7717" y1="81.0671" x2="75.7738" y2="83.5961" gradientUnits="userSpaceOnUse">
<stop stop-color="#EB1484"/>
<stop offset="0.9999" stop-color="#C91CC3"/>
<stop offset="1" stop-color="#C81CC5"/>
<stop offset="1" stop-color="#C81CC5"/>
</linearGradient>
</defs>
</svg>
